<svg width="25" height="25" viewBox="0 0 25 25" fill="none" xmlns="http://www.w3.org/2000/svg">
<g opacity="0.5" clip-path="url(#clip0_1_392)">
<path fill-rule="evenodd" clip-rule="evenodd" d="M15.625 6.25C15.6252 6.89648 15.4249 7.52711 15.0518 8.05505C14.6787 8.583 14.1511 8.98228 13.5417 9.19792V11.4583H16.6667C17.4955 11.4583 18.2903 11.7876 18.8764 12.3736C19.4624 12.9597 19.7917 13.7545 19.7917 14.5833V15.8021C20.487 16.0478 21.073 16.5315 21.4462 17.1675C21.8194 17.8036 21.9557 18.5511 21.8311 19.2779C21.7064 20.0047 21.3288 20.6641 20.765 21.1394C20.2012 21.6148 19.4875 21.8755 18.75 21.8755C18.0126 21.8755 17.2988 21.6148 16.735 21.1394C16.1712 20.6641 15.7936 20.0047 15.6689 19.2779C15.5443 18.5511 15.6806 17.8036 16.0538 17.1675C16.427 16.5315 17.013 16.0478 17.7083 15.8021V14.5833C17.7083 14.3071 17.5986 14.0421 17.4032 13.8468C17.2079 13.6514 16.9429 13.5417 16.6667 13.5417H8.33334C8.05707 13.5417 7.79212 13.6514 7.59677 13.8468C7.40142 14.0421 7.29167 14.3071 7.29167 14.5833V15.8021C7.98697 16.0478 8.57302 16.5315 8.94621 17.1675C9.3194 17.8036 9.45572 18.5511 9.33106 19.2779C9.20639 20.0047 8.82878 20.6641 8.26497 21.1394C7.70116 21.6148 6.98745 21.8755 6.25 21.8755C5.51255 21.8755 4.79884 21.6148 4.23503 21.1394C3.67122 20.6641 3.29361 20.0047 3.16895 19.2779C3.04429 18.5511 3.1806 17.8036 3.55379 17.1675C3.92699 16.5315 4.51303 16.0478 5.20834 15.8021V14.5833C5.20834 13.7545 5.53758 12.9597 6.12363 12.3736C6.70968 11.7876 7.50453 11.4583 8.33334 11.4583H11.4583V9.19792C10.9179 9.00712 10.4403 8.6714 10.0777 8.22747C9.71518 7.78353 9.48167 7.24847 9.40272 6.68077C9.32377 6.11308 9.40241 5.5346 9.63005 5.00859C9.8577 4.48258 10.2256 4.02927 10.6935 3.69824C11.1614 3.3672 11.7113 3.17117 12.2831 3.13159C12.8548 3.092 13.4265 3.21038 13.9356 3.47378C14.4446 3.73718 14.8715 4.13547 15.1694 4.6251C15.4674 5.11472 15.625 5.67684 15.625 6.25ZM12.5 5.20833C12.2237 5.20833 11.9588 5.31808 11.7634 5.51343C11.5681 5.70878 11.4583 5.97373 11.4583 6.25C11.4583 6.52627 11.5681 6.79122 11.7634 6.98657C11.9588 7.18192 12.2237 7.29167 12.5 7.29167C12.7763 7.29167 13.0412 7.18192 13.2366 6.98657C13.4319 6.79122 13.5417 6.52627 13.5417 6.25C13.5417 5.97373 13.4319 5.70878 13.2366 5.51343C13.0412 5.31808 12.7763 5.20833 12.5 5.20833ZM6.25 17.7083C5.97374 17.7083 5.70878 17.8181 5.51343 18.0134C5.31808 18.2088 5.20834 18.4737 5.20834 18.75C5.20834 19.0263 5.31808 19.2912 5.51343 19.4866C5.70878 19.6819 5.97374 19.7917 6.25 19.7917C6.52627 19.7917 6.79122 19.6819 6.98657 19.4866C7.18192 19.2912 7.29167 19.0263 7.29167 18.75C7.29167 18.4737 7.18192 18.2088 6.98657 18.0134C6.79122 17.8181 6.52627 17.7083 6.25 17.7083ZM18.75 17.7083C18.4737 17.7083 18.2088 17.8181 18.0134 18.0134C17.8181 18.2088 17.7083 18.4737 17.7083 18.75C17.7083 19.0263 17.8181 19.2912 18.0134 19.4866C18.2088 19.6819 18.4737 19.7917 18.75 19.7917C19.0263 19.7917 19.2912 19.6819 19.4866 19.4866C19.6819 19.2912 19.7917 19.0263 19.7917 18.75C19.7917 18.4737 19.6819 18.2088 19.4866 18.0134C19.2912 17.8181 19.0263 17.7083 18.75 17.7083Z" fill="currentColor"/>
</g>
<defs>
<clipPath id="clip0_1_392">
<rect width="25" height="25" fill="currentColor"/>
</clipPath>
</defs>
</svg>
