<svg width="19" height="19" viewBox="0 0 19 19" fill="none" xmlns="http://www.w3.org/2000/svg">
<path d="M12.875 0.5V18.5M18.5 2.75C18.5 2.15326 18.2629 1.58097 17.841 1.15901C17.419 0.737053 16.8467 0.5 16.25 0.5H2.75C2.15326 0.5 1.58097 0.737053 1.15901 1.15901C0.737053 1.58097 0.5 2.15326 0.5 2.75V16.25C0.5 16.8467 0.737053 17.419 1.15901 17.841C1.58097 18.2629 2.15326 18.5 2.75 18.5H16.25C16.8467 18.5 17.419 18.2629 17.841 17.841C18.2629 17.419 18.5 16.8467 18.5 16.25V2.75Z" stroke="#727272" stroke-linecap="round" stroke-linejoin="round"/>
<path d="M6.125 7.25L8.375 9.5L6.125 11.75" stroke="#727272" stroke-linecap="round" stroke-linejoin="round"/>
</svg>
