<svg width="20" height="20" viewBox="0 0 20 20" fill="none" xmlns="http://www.w3.org/2000/svg">
<g clip-path="url(#clip0_159_86)">
<path d="M9.99854 5.83246V17.4974" stroke="currentColor" stroke-width="1.66641" stroke-linecap="round" stroke-linejoin="round"/>
<path d="M2.49959 14.9977C2.27861 14.9977 2.06668 14.91 1.91042 14.7537C1.75417 14.5974 1.66638 14.3855 1.66638 14.1645V3.33284C1.66638 3.11186 1.75417 2.89993 1.91042 2.74367C2.06668 2.58742 2.27861 2.49963 2.49959 2.49963H6.66563C7.54955 2.49963 8.39727 2.85077 9.02229 3.4758C9.64732 4.10082 9.99845 4.94854 9.99845 5.83246C9.99845 4.94854 10.3496 4.10082 10.9746 3.4758C11.5996 2.85077 12.4474 2.49963 13.3313 2.49963H17.4973C17.7183 2.49963 17.9302 2.58742 18.0865 2.74367C18.2427 2.89993 18.3305 3.11186 18.3305 3.33284V14.1645C18.3305 14.3855 18.2427 14.5974 18.0865 14.7537C17.9302 14.91 17.7183 14.9977 17.4973 14.9977H12.4981C11.8351 14.9977 11.1993 15.2611 10.7306 15.7299C10.2618 16.1986 9.99845 16.8344 9.99845 17.4974C9.99845 16.8344 9.7351 16.1986 9.26633 15.7299C8.79756 15.2611 8.16177 14.9977 7.49883 14.9977H2.49959Z" stroke="currentColor" stroke-width="1.66641" stroke-linecap="round" stroke-linejoin="round"/>
</g>
<defs>
<clipPath id="clip0_159_86">
<rect width="19.997" height="19.997" fill="white"/>
</clipPath>
</defs>
</svg>
