<svg width="113" height="16" viewBox="0 0 113 16" fill="none" xmlns="http://www.w3.org/2000/svg">
<path d="M4.97276 0.855974C6.4673 0.855974 7.77843 1.14809 8.90613 1.73232C10.0474 2.31655 10.9238 3.15214 11.5352 4.23908C12.1602 5.31244 12.4727 6.56242 12.4727 7.98903C12.4727 9.41564 12.1602 10.6656 11.5352 11.739C10.9238 12.7988 10.0474 13.6208 8.90613 14.205C7.77843 14.7892 6.4673 15.0813 4.97276 15.0813H-3.23269e-06V0.855974H4.97276ZM4.87086 12.6561C6.3654 12.6561 7.52028 12.2485 8.33548 11.4333C9.15069 10.6181 9.5583 9.46999 9.5583 7.98903C9.5583 6.50807 9.15069 5.3532 8.33548 4.5244C7.52028 3.68202 6.3654 3.26083 4.87086 3.26083H2.85322V12.6561H4.87086ZM13.8747 9.39526C13.8747 8.25397 14.0989 7.24176 14.5473 6.35862C15.0092 5.47548 15.6274 4.79614 16.4019 4.3206C17.1899 3.84506 18.0663 3.6073 19.0309 3.6073C19.8733 3.6073 20.607 3.77713 21.232 4.1168C21.8706 4.45647 22.3801 4.88445 22.7605 5.40075V3.79072H25.6341V15.0813H22.7605V13.4305C22.3937 13.9604 21.8842 14.402 21.232 14.7552C20.5934 15.0949 19.8529 15.2648 19.0106 15.2648C18.0595 15.2648 17.1899 15.0202 16.4019 14.5311C15.6274 14.0419 15.0092 13.3558 14.5473 12.4727C14.0989 11.5759 13.8747 10.5501 13.8747 9.39526ZM22.7605 9.43602C22.7605 8.7431 22.6246 8.15207 22.3529 7.66295C22.0812 7.16024 21.7143 6.77981 21.2524 6.52166C20.7904 6.24992 20.2945 6.11406 19.7646 6.11406C19.2347 6.11406 18.7456 6.24313 18.2972 6.50128C17.8489 6.75943 17.482 7.13986 17.1967 7.64257C16.925 8.13169 16.7891 8.71592 16.7891 9.39526C16.7891 10.0746 16.925 10.6724 17.1967 11.1887C17.482 11.6914 17.8489 12.0787 18.2972 12.3504C18.7592 12.6221 19.2483 12.758 19.7646 12.758C20.2945 12.758 20.7904 12.6289 21.2524 12.3708C21.7143 12.099 22.0812 11.7186 22.3529 11.2295C22.6246 10.7268 22.7605 10.1289 22.7605 9.43602ZM32.7414 15.2648C31.8175 15.2648 30.9887 15.1017 30.255 14.7756C29.5213 14.436 28.9371 13.9808 28.5023 13.4102C28.0811 12.8395 27.8501 12.2077 27.8094 11.5148H30.683C30.7373 11.9496 30.9479 12.3096 31.3148 12.5949C31.6952 12.8803 32.1639 13.0229 32.721 13.0229C33.2645 13.0229 33.6856 12.9142 33.9846 12.6968C34.2971 12.4795 34.4533 12.2009 34.4533 11.8613C34.4533 11.4944 34.2631 11.2227 33.8827 11.0461C33.5158 10.8558 32.9248 10.652 32.1096 10.4347C31.2672 10.2308 30.5743 10.0203 30.0308 9.80287C29.5009 9.58548 29.039 9.2526 28.645 8.80424C28.2645 8.35587 28.0743 7.75126 28.0743 6.9904C28.0743 6.36541 28.2509 5.79477 28.6042 5.27847C28.971 4.76217 29.4873 4.35457 30.1531 4.05566C30.8324 3.75675 31.6273 3.6073 32.5376 3.6073C33.8827 3.6073 34.956 3.94697 35.7576 4.6263C36.5593 5.29206 37.0008 6.19558 37.0823 7.33687H34.3514C34.3106 6.8885 34.1204 6.53525 33.7808 6.2771C33.4547 6.00536 33.0131 5.86949 32.456 5.86949C31.9397 5.86949 31.5389 5.9646 31.2536 6.15482C30.9819 6.34503 30.846 6.60997 30.846 6.94964C30.846 7.33007 31.0362 7.62219 31.4167 7.82599C31.7971 8.01621 32.3881 8.21321 33.1897 8.41701C34.0049 8.62082 34.6775 8.83141 35.2074 9.0488C35.7373 9.26619 36.1924 9.60586 36.5728 10.0678C36.9669 10.5162 37.1707 11.114 37.1842 11.8613C37.1842 12.5134 37.0008 13.0977 36.634 13.614C36.2807 14.1303 35.7644 14.5379 35.0851 14.8368C34.4193 15.1221 33.6381 15.2648 32.7414 15.2648ZM45.885 3.62768C46.741 3.62768 47.5018 3.81789 48.1676 4.19832C48.8333 4.56516 49.3496 5.11543 49.7165 5.84911C50.0969 6.56921 50.2871 7.43877 50.2871 8.45778V15.0813H47.4339V8.845C47.4339 7.94827 47.2097 7.26214 46.7613 6.7866C46.313 6.29748 45.7016 6.05292 44.9271 6.05292C44.1391 6.05292 43.5141 6.29748 43.0521 6.7866C42.6038 7.26214 42.3796 7.94827 42.3796 8.845V15.0813H39.5264V6.97727e-06H42.3796V5.19695C42.7464 4.70782 43.2356 4.3274 43.847 4.05566C44.4584 3.77034 45.1377 3.62768 45.885 3.62768ZM55.8536 5.44151C56.2204 4.89804 56.7231 4.45647 57.3617 4.1168C58.0139 3.77713 58.7544 3.6073 59.5832 3.6073C60.5478 3.6073 61.4174 3.84506 62.1918 4.3206C62.9799 4.79614 63.5981 5.47548 64.0464 6.35862C64.5084 7.22817 64.7393 8.24039 64.7393 9.39526C64.7393 10.5501 64.5084 11.5759 64.0464 12.4727C63.5981 13.3558 62.9799 14.0419 62.1918 14.5311C61.4174 15.0202 60.5478 15.2648 59.5832 15.2648C58.7408 15.2648 58.0003 15.1017 57.3617 14.7756C56.7367 14.436 56.234 14.0012 55.8536 13.4713V15.0813H53.0004V6.97727e-06H55.8536V5.44151ZM61.825 9.39526C61.825 8.71592 61.6823 8.13169 61.397 7.64257C61.1253 7.13986 60.7584 6.75943 60.2965 6.50128C59.8481 6.24313 59.359 6.11406 58.8291 6.11406C58.3128 6.11406 57.8237 6.24992 57.3617 6.52166C56.9134 6.77981 56.5465 7.16024 56.2612 7.66295C55.9895 8.16566 55.8536 8.75668 55.8536 9.43602C55.8536 10.1154 55.9895 10.7064 56.2612 11.2091C56.5465 11.7118 56.9134 12.099 57.3617 12.3708C57.8237 12.6289 58.3128 12.758 58.8291 12.758C59.359 12.758 59.8481 12.6221 60.2965 12.3504C60.7584 12.0787 61.1253 11.6914 61.397 11.1887C61.6823 10.686 61.825 10.0882 61.825 9.39526ZM71.8262 15.2648C70.7393 15.2648 69.761 15.027 68.8915 14.5514C68.0219 14.0623 67.3358 13.3762 66.8331 12.493C66.344 11.6099 66.0994 10.5909 66.0994 9.43602C66.0994 8.28115 66.3508 7.26214 66.8535 6.379C67.3698 5.49586 68.0695 4.81652 68.9526 4.34098C69.8358 3.85186 70.8208 3.6073 71.9078 3.6073C72.9947 3.6073 73.9797 3.85186 74.8629 4.34098C75.746 4.81652 76.4389 5.49586 76.9417 6.379C77.458 7.26214 77.7161 8.28115 77.7161 9.43602C77.7161 10.5909 77.4512 11.6099 76.9213 12.493C76.405 13.3762 75.6985 14.0623 74.8017 14.5514C73.9186 15.027 72.9268 15.2648 71.8262 15.2648ZM71.8262 12.7784C72.3425 12.7784 72.8249 12.6561 73.2732 12.4115C73.7352 12.1534 74.102 11.7729 74.3738 11.2702C74.6455 10.7675 74.7814 10.1561 74.7814 9.43602C74.7814 8.36267 74.496 7.54067 73.9254 6.97002C73.3683 6.38579 72.6822 6.09368 71.867 6.09368C71.0518 6.09368 70.3657 6.38579 69.8086 6.97002C69.2651 7.54067 68.9934 8.36267 68.9934 9.43602C68.9934 10.5094 69.2583 11.3382 69.7882 11.9224C70.3317 12.493 71.011 12.7784 71.8262 12.7784ZM79.0754 9.39526C79.0754 8.25397 79.2995 7.24176 79.7479 6.35862C80.2099 5.47548 80.828 4.79614 81.6025 4.3206C82.3905 3.84506 83.2669 3.6073 84.2315 3.6073C85.0739 3.6073 85.8076 3.77713 86.4326 4.1168C87.0712 4.45647 87.5807 4.88445 87.9611 5.40075V3.79072H90.8347V15.0813H87.9611V13.4305C87.5943 13.9604 87.0848 14.402 86.4326 14.7552C85.794 15.0949 85.0535 15.2648 84.2112 15.2648C83.2601 15.2648 82.3905 15.0202 81.6025 14.5311C80.828 14.0419 80.2099 13.3558 79.7479 12.4727C79.2995 11.5759 79.0754 10.5501 79.0754 9.39526ZM87.9611 9.43602C87.9611 8.7431 87.8252 8.15207 87.5535 7.66295C87.2818 7.16024 86.9149 6.77981 86.453 6.52166C85.991 6.24992 85.4951 6.11406 84.9652 6.11406C84.4353 6.11406 83.9462 6.24313 83.4979 6.50128C83.0495 6.75943 82.6826 7.13986 82.3973 7.64257C82.1256 8.13169 81.9897 8.71592 81.9897 9.39526C81.9897 10.0746 82.1256 10.6724 82.3973 11.1887C82.6826 11.6914 83.0495 12.0787 83.4979 12.3504C83.9598 12.6221 84.4489 12.758 84.9652 12.758C85.4951 12.758 85.991 12.6289 86.453 12.3708C86.9149 12.099 87.2818 11.7186 87.5535 11.2295C87.8252 10.7268 87.9611 10.1289 87.9611 9.43602ZM96.4746 5.54341C96.8414 4.94559 97.317 4.47685 97.9012 4.13718C98.499 3.79751 99.1784 3.62768 99.9392 3.62768V6.62356H99.1852C98.2884 6.62356 97.6091 6.83416 97.1471 7.25535C96.6988 7.67654 96.4746 8.41022 96.4746 9.4564V15.0813H93.6214V3.79072H96.4746V5.54341ZM101.127 9.39526C101.127 8.25397 101.352 7.24176 101.8 6.35862C102.262 5.47548 102.887 4.79614 103.675 4.3206C104.463 3.84506 105.339 3.6073 106.304 3.6073C107.038 3.6073 107.737 3.77034 108.403 4.09642C109.069 4.40892 109.599 4.83011 109.993 5.35999V6.97727e-06H112.887V15.0813H109.993V13.4102C109.639 13.9672 109.144 14.4156 108.505 14.7552C107.866 15.0949 107.126 15.2648 106.284 15.2648C105.332 15.2648 104.463 15.0202 103.675 14.5311C102.887 14.0419 102.262 13.3558 101.8 12.4727C101.352 11.5759 101.127 10.5501 101.127 9.39526ZM110.013 9.43602C110.013 8.7431 109.877 8.15207 109.605 7.66295C109.334 7.16024 108.967 6.77981 108.505 6.52166C108.043 6.24992 107.547 6.11406 107.017 6.11406C106.487 6.11406 105.998 6.24313 105.55 6.50128C105.101 6.75943 104.735 7.13986 104.449 7.64257C104.178 8.13169 104.042 8.71592 104.042 9.39526C104.042 10.0746 104.178 10.6724 104.449 11.1887C104.735 11.6914 105.101 12.0787 105.55 12.3504C106.012 12.6221 106.501 12.758 107.017 12.758C107.547 12.758 108.043 12.6289 108.505 12.3708C108.967 12.099 109.334 11.7186 109.605 11.2295C109.877 10.7268 110.013 10.1289 110.013 9.43602Z" fill="#E8E8E8"/>
</svg>
