<svg width="137" height="37" viewBox="0 0 137 37" fill="none" xmlns="http://www.w3.org/2000/svg">
<path d="M6.37899 20.7746C7.87354 20.7746 9.18466 21.0668 10.3124 21.651C11.4537 22.2352 12.33 23.0708 12.9414 24.1578C13.5664 25.2311 13.8789 26.4811 13.8789 27.9077C13.8789 29.3343 13.5664 30.5843 12.9414 31.6577C12.33 32.7174 11.4537 33.5394 10.3124 34.1237C9.18466 34.7079 7.87354 35 6.37899 35H1.40623V20.7746H6.37899ZM6.27709 32.5748C7.77164 32.5748 8.92651 32.1672 9.74172 31.352C10.5569 30.5367 10.9645 29.3887 10.9645 27.9077C10.9645 26.4267 10.5569 25.2719 9.74172 24.4431C8.92651 23.6007 7.77164 23.1795 6.27709 23.1795H4.25945V32.5748H6.27709ZM15.281 29.3139C15.281 28.1726 15.5052 27.1604 15.9535 26.2773C16.4155 25.3941 17.0337 24.7148 17.8081 24.2393C18.5962 23.7637 19.4725 23.526 20.4372 23.526C21.2795 23.526 22.0132 23.6958 22.6382 24.0355C23.2768 24.3751 23.7863 24.8031 24.1667 25.3194V23.7094H27.0403V35H24.1667V33.3492C23.7999 33.8791 23.2904 34.3207 22.6382 34.6739C21.9996 35.0136 21.2592 35.1834 20.4168 35.1834C19.4657 35.1834 18.5962 34.9389 17.8081 34.4497C17.0337 33.9606 16.4155 33.2745 15.9535 32.3913C15.5052 31.4946 15.281 30.4688 15.281 29.3139ZM24.1667 29.3547C24.1667 28.6618 24.0309 28.0707 23.7591 27.5816C23.4874 27.0789 23.1206 26.6985 22.6586 26.4403C22.1967 26.1686 21.7007 26.0327 21.1709 26.0327C20.641 26.0327 20.1518 26.1618 19.7035 26.4199C19.2551 26.6781 18.8883 27.0585 18.603 27.5612C18.3312 28.0504 18.1953 28.6346 18.1953 29.3139C18.1953 29.9933 18.3312 30.5911 18.603 31.1074C18.8883 31.6101 19.2551 31.9973 19.7035 32.2691C20.1654 32.5408 20.6546 32.6767 21.1709 32.6767C21.7007 32.6767 22.1967 32.5476 22.6586 32.2894C23.1206 32.0177 23.4874 31.6373 23.7591 31.1481C24.0309 30.6454 24.1667 30.0476 24.1667 29.3547ZM34.1476 35.1834C33.2237 35.1834 32.3949 35.0204 31.6612 34.6943C30.9275 34.3546 30.3433 33.8995 29.9085 33.3288C29.4873 32.7582 29.2564 32.1264 29.2156 31.4335H32.0892C32.1436 31.8682 32.3541 32.2283 32.721 32.5136C33.1014 32.7989 33.5702 32.9416 34.1272 32.9416C34.6707 32.9416 35.0919 32.8329 35.3908 32.6155C35.7033 32.3981 35.8595 32.1196 35.8595 31.7799C35.8595 31.4131 35.6693 31.1414 35.2889 30.9647C34.922 30.7745 34.331 30.5707 33.5158 30.3533C32.6734 30.1495 31.9805 29.9389 31.437 29.7215C30.9072 29.5041 30.4452 29.1713 30.0512 28.7229C29.6708 28.2745 29.4805 27.6699 29.4805 26.9091C29.4805 26.2841 29.6572 25.7134 30.0104 25.1971C30.3773 24.6808 30.8936 24.2732 31.5593 23.9743C32.2387 23.6754 33.0335 23.526 33.9438 23.526C35.2889 23.526 36.3622 23.8656 37.1639 24.545C37.9655 25.2107 38.4071 26.1142 38.4886 27.2555H35.7576C35.7169 26.8072 35.5267 26.4539 35.187 26.1958C34.8609 25.924 34.4193 25.7882 33.8623 25.7882C33.346 25.7882 32.9452 25.8833 32.6599 26.0735C32.3881 26.2637 32.2522 26.5286 32.2522 26.8683C32.2522 27.2487 32.4425 27.5409 32.8229 27.7447C33.2033 27.9349 33.7943 28.1319 34.596 28.3357C35.4112 28.5395 36.0837 28.7501 36.6136 28.9675C37.1435 29.1849 37.5986 29.5245 37.9791 29.9865C38.3731 30.4348 38.5769 31.0327 38.5905 31.7799C38.5905 32.4321 38.4071 33.0163 38.0402 33.5326C37.687 34.0489 37.1707 34.4565 36.4913 34.7554C35.8256 35.0408 35.0443 35.1834 34.1476 35.1834ZM47.2912 23.5463C48.1472 23.5463 48.908 23.7366 49.5738 24.117C50.2395 24.4838 50.7558 25.0341 51.1227 25.7678C51.5031 26.4879 51.6933 27.3574 51.6933 28.3764V35H48.8401V28.7637C48.8401 27.8669 48.6159 27.1808 48.1676 26.7053C47.7192 26.2161 47.1078 25.9716 46.3334 25.9716C45.5453 25.9716 44.9203 26.2161 44.4584 26.7053C44.01 27.1808 43.7858 27.8669 43.7858 28.7637V35H40.9326V19.9187H43.7858V25.1156C44.1527 24.6265 44.6418 24.2461 45.2532 23.9743C45.8646 23.689 46.5439 23.5463 47.2912 23.5463ZM57.2598 25.3602C57.6267 24.8167 58.1294 24.3751 58.768 24.0355C59.4201 23.6958 60.1606 23.526 60.9894 23.526C61.9541 23.526 62.8236 23.7637 63.5981 24.2393C64.3861 24.7148 65.0043 25.3941 65.4527 26.2773C65.9146 27.1468 66.1456 28.1591 66.1456 29.3139C66.1456 30.4688 65.9146 31.4946 65.4527 32.3913C65.0043 33.2745 64.3861 33.9606 63.5981 34.4497C62.8236 34.9389 61.9541 35.1834 60.9894 35.1834C60.147 35.1834 59.4065 35.0204 58.768 34.6943C58.143 34.3546 57.6403 33.9199 57.2598 33.39V35H54.4066V19.9187H57.2598V25.3602ZM63.2312 29.3139C63.2312 28.6346 63.0886 28.0504 62.8032 27.5612C62.5315 27.0585 62.1647 26.6781 61.7027 26.4199C61.2543 26.1618 60.7652 26.0327 60.2353 26.0327C59.719 26.0327 59.2299 26.1686 58.768 26.4403C58.3196 26.6985 57.9528 27.0789 57.6674 27.5816C57.3957 28.0843 57.2598 28.6754 57.2598 29.3547C57.2598 30.034 57.3957 30.6251 57.6674 31.1278C57.9528 31.6305 58.3196 32.0177 58.768 32.2894C59.2299 32.5476 59.719 32.6767 60.2353 32.6767C60.7652 32.6767 61.2543 32.5408 61.7027 32.2691C62.1647 31.9973 62.5315 31.6101 62.8032 31.1074C63.0886 30.6047 63.2312 30.0069 63.2312 29.3139ZM73.2325 35.1834C72.1455 35.1834 71.1673 34.9457 70.2977 34.4701C69.4282 33.981 68.742 33.2949 68.2393 32.4117C67.7502 31.5286 67.5056 30.5096 67.5056 29.3547C67.5056 28.1998 67.757 27.1808 68.2597 26.2977C68.776 25.4145 69.4757 24.7352 70.3589 24.2597C71.242 23.7705 72.227 23.526 73.314 23.526C74.4009 23.526 75.386 23.7705 76.2691 24.2597C77.1523 24.7352 77.8452 25.4145 78.3479 26.2977C78.8642 27.1808 79.1223 28.1998 79.1223 29.3547C79.1223 30.5096 78.8574 31.5286 78.3275 32.4117C77.8112 33.2949 77.1047 33.981 76.208 34.4701C75.3248 34.9457 74.333 35.1834 73.2325 35.1834ZM73.2325 32.697C73.7488 32.697 74.2311 32.5748 74.6795 32.3302C75.1414 32.072 75.5083 31.6916 75.78 31.1889C76.0517 30.6862 76.1876 30.0748 76.1876 29.3547C76.1876 28.2813 75.9023 27.4593 75.3316 26.8887C74.7746 26.3045 74.0884 26.0123 73.2732 26.0123C72.458 26.0123 71.7719 26.3045 71.2148 26.8887C70.6714 27.4593 70.3996 28.2813 70.3996 29.3547C70.3996 30.428 70.6646 31.2568 71.1944 31.8411C71.7379 32.4117 72.4173 32.697 73.2325 32.697ZM80.4816 29.3139C80.4816 28.1726 80.7058 27.1604 81.1541 26.2773C81.6161 25.3941 82.2343 24.7148 83.0087 24.2393C83.7968 23.7637 84.6731 23.526 85.6378 23.526C86.4802 23.526 87.2138 23.6958 87.8388 24.0355C88.4774 24.3751 88.9869 24.8031 89.3673 25.3194V23.7094H92.2409V35H89.3673V33.3492C89.0005 33.8791 88.491 34.3207 87.8388 34.6739C87.2003 35.0136 86.4598 35.1834 85.6174 35.1834C84.6663 35.1834 83.7968 34.9389 83.0087 34.4497C82.2343 33.9606 81.6161 33.2745 81.1541 32.3913C80.7058 31.4946 80.4816 30.4688 80.4816 29.3139ZM89.3673 29.3547C89.3673 28.6618 89.2315 28.0707 88.9597 27.5816C88.688 27.0789 88.3212 26.6985 87.8592 26.4403C87.3973 26.1686 86.9013 26.0327 86.3715 26.0327C85.8416 26.0327 85.3524 26.1618 84.9041 26.4199C84.4557 26.6781 84.0889 27.0585 83.8036 27.5612C83.5318 28.0504 83.396 28.6346 83.396 29.3139C83.396 29.9933 83.5318 30.5911 83.8036 31.1074C84.0889 31.6101 84.4557 31.9973 84.9041 32.2691C85.366 32.5408 85.8552 32.6767 86.3715 32.6767C86.9013 32.6767 87.3973 32.5476 87.8592 32.2894C88.3212 32.0177 88.688 31.6373 88.9597 31.1481C89.2315 30.6454 89.3673 30.0476 89.3673 29.3547ZM97.8808 25.4621C98.2477 24.8643 98.7232 24.3955 99.3075 24.0559C99.9053 23.7162 100.585 23.5463 101.345 23.5463V26.5422H100.591C99.6947 26.5422 99.0153 26.7528 98.5534 27.174C98.105 27.5952 97.8808 28.3289 97.8808 29.3751V35H95.0276V23.7094H97.8808V25.4621ZM102.534 29.3139C102.534 28.1726 102.758 27.1604 103.206 26.2773C103.668 25.3941 104.293 24.7148 105.081 24.2393C105.869 23.7637 106.745 23.526 107.71 23.526C108.444 23.526 109.144 23.689 109.809 24.0151C110.475 24.3276 111.005 24.7488 111.399 25.2787V19.9187H114.293V35H111.399V33.3288C111.046 33.8859 110.55 34.3342 109.911 34.6739C109.273 35.0136 108.532 35.1834 107.69 35.1834C106.739 35.1834 105.869 34.9389 105.081 34.4497C104.293 33.9606 103.668 33.2745 103.206 32.3913C102.758 31.4946 102.534 30.4688 102.534 29.3139ZM111.419 29.3547C111.419 28.6618 111.283 28.0707 111.012 27.5816C110.74 27.0789 110.373 26.6985 109.911 26.4403C109.449 26.1686 108.953 26.0327 108.423 26.0327C107.894 26.0327 107.404 26.1618 106.956 26.4199C106.508 26.6781 106.141 27.0585 105.856 27.5612C105.584 28.0504 105.448 28.6346 105.448 29.3139C105.448 29.9933 105.584 30.5911 105.856 31.1074C106.141 31.6101 106.508 31.9973 106.956 32.2691C107.418 32.5408 107.907 32.6767 108.423 32.6767C108.953 32.6767 109.449 32.5476 109.911 32.2894C110.373 32.0177 110.74 31.6373 111.012 31.1481C111.283 30.6454 111.419 30.0476 111.419 29.3547Z" fill="#E8E8E8"/>
<path d="M121.149 36.2314V18.1157L137 27.4058L121.149 36.2314Z" fill="#0660C3"/>
<path d="M124.923 6.96044L112.091 13.7011L137 28.3058V12.9521V0L124.923 6.96044Z" fill="url(#paint0_linear_1_711)"/>
<defs>
<linearGradient id="paint0_linear_1_711" x1="124.545" y1="6.96044" x2="136.863" y2="26.1465" gradientUnits="userSpaceOnUse">
<stop stop-color="#3983FA"/>
<stop offset="1" stop-color="#3C82F2"/>
</linearGradient>
</defs>
</svg>
