<svg width="20" height="22" viewBox="0 0 20 22" fill="none" xmlns="http://www.w3.org/2000/svg">
<path d="M15.6 6.60001C15.6 5.00871 14.9679 3.48258 13.8427 2.35737C12.7175 1.23215 11.1913 0.600006 9.60004 0.600006C8.00875 0.600006 6.48262 1.23215 5.3574 2.35737C4.23219 3.48258 3.60004 5.00871 3.60004 6.60001C3.60004 13.6 0.600044 15.6 0.600044 15.6H18.6C18.6 15.6 15.6 13.6 15.6 6.60001Z" stroke="currentColor" stroke-width="1.2" stroke-linecap="round" stroke-linejoin="round"/>
<path d="M11.3301 19.6C11.1543 19.9031 10.9019 20.1547 10.5983 20.3295C10.2947 20.5044 9.95044 20.5965 9.60006 20.5965C9.24968 20.5965 8.90545 20.5044 8.60184 20.3295C8.29822 20.1547 8.04587 19.9031 7.87006 19.6" stroke="currentColor" stroke-width="1.2" stroke-linecap="round" stroke-linejoin="round"/>
</svg>
