<svg width="19" height="17" viewBox="0 0 19 17" fill="none" xmlns="http://www.w3.org/2000/svg">
<path d="M12.4982 15.8309V14.1645C12.4982 13.2806 12.147 12.4329 11.522 11.8078C10.897 11.1828 10.0492 10.8317 9.16533 10.8317H4.16608C3.28216 10.8317 2.43444 11.1828 1.80942 11.8078C1.18439 12.4329 0.833252 13.2806 0.833252 14.1645V15.8309" stroke="currentColor" stroke-width="1.66641" stroke-linecap="round" stroke-linejoin="round"/>
<path d="M12.4982 0.939819C13.2129 1.1251 13.8458 1.54245 14.2976 2.12636C14.7495 2.71027 14.9946 3.42768 14.9946 4.166C14.9946 4.90431 14.7495 5.62173 14.2976 6.20564C13.8458 6.78955 13.2129 7.2069 12.4982 7.39218" stroke="currentColor" stroke-width="1.66641" stroke-linecap="round" stroke-linejoin="round"/>
<path d="M17.4974 15.8309V14.1645C17.4969 13.4261 17.2511 12.7087 16.7987 12.1251C16.3462 11.5415 15.7128 11.1246 14.9978 10.94" stroke="currentColor" stroke-width="1.66641" stroke-linecap="round" stroke-linejoin="round"/>
<path d="M6.66572 7.49885C8.50639 7.49885 9.99854 6.00669 9.99854 4.16602C9.99854 2.32535 8.50639 0.833191 6.66572 0.833191C4.82504 0.833191 3.33289 2.32535 3.33289 4.16602C3.33289 6.00669 4.82504 7.49885 6.66572 7.49885Z" stroke="currentColor" stroke-width="1.66641" stroke-linecap="round" stroke-linejoin="round"/>
</svg>
